
<svg version="1.0" xmlns="http://www.w3.org/2000/svg"
 width="775.000000pt" height="360.000000pt" viewBox="0 0 775.000000 360.000000"
 preserveAspectRatio="xMidYMid meet">
<metadata>
Created by potrace 1.14, written by Peter Selinger 2001-2017
</metadata>
<g transform="translate(0.000000,360.000000) scale(0.100000,-0.100000)"
fill="#000000" stroke="none">
<path d="M790 3523 c0 -82 -5 -236 -17 -543 -3 -102 -7 -226 -7 -276 l-1 -92
-48 -17 c-26 -9 -49 -21 -52 -26 -3 -4 -7 -40 -9 -80 -3 -60 -1 -74 15 -90 24
-24 25 -71 2 -92 -19 -17 -95 -45 -153 -57 -19 -4 -43 -11 -52 -15 -16 -6 -18
-1 -18 44 0 69 -51 191 -97 231 -27 24 -43 30 -81 30 -40 0 -53 -5 -75 -28
-37 -38 -69 -134 -68 -204 0 -53 -1 -58 -24 -64 -14 -3 -43 -23 -65 -43 l-40
-36 0 -642 0 -642 30 -34 c17 -19 30 -38 30 -43 0 -5 -13 7 -30 26 l-29 35 -1
-433 0 -432 1320 0 c837 1 1321 4 1325 10 3 6 12 10 18 10 7 0 6 -4 -3 -10
-11 -8 -1 -10 35 -7 32 2 49 7 48 15 -2 7 2 12 7 12 6 0 10 -7 10 -15 0 -10
11 -15 35 -15 27 0 35 4 35 18 1 16 1 16 11 -1 9 -15 28 -17 170 -17 119 0
158 3 153 12 -4 7 -3 8 5 4 35 -22 100 -8 84 17 -3 6 -1 7 6 3 8 -6 9 -11 1
-20 -8 -10 3 -13 50 -14 57 -1 65 4 61 31 0 4 4 7 10 7 6 0 8 -7 5 -16 -3 -8
-2 -12 4 -9 6 3 10 2 10 -2 0 -5 33 -9 73 -10 47 -1 65 2 52 7 -11 5 -14 9 -7
9 9 1 11 8 6 23 -6 20 -5 21 9 10 9 -8 22 -10 28 -6 7 4 9 3 5 -4 -3 -6 2 -13
11 -15 14 -4 13 -5 -4 -6 -13 0 -23 -5 -23 -11 0 -14 47 -13 52 1 3 9 9 9 25
1 15 -8 402 -12 1395 -12 1212 0 1375 2 1375 15 0 8 -7 15 -16 15 -14 1 -13 3
2 14 13 10 15 16 6 21 -6 4 -15 1 -20 -6 -6 -9 -9 -10 -9 -2 0 21 21 25 39 9
15 -14 23 -15 45 -5 14 7 26 16 26 21 0 4 7 8 15 8 8 0 15 7 15 15 0 10 -10
15 -34 15 -18 0 -39 6 -45 14 -9 11 -5 15 24 18 26 3 39 0 45 -11 7 -12 9 -7
10 19 0 30 -5 37 -30 48 -16 8 -30 18 -30 23 0 6 8 6 19 -1 31 -16 38 -12 33
20 -2 16 -9 30 -14 30 -6 0 -4 8 3 17 12 15 12 16 -1 8 -13 -8 -13 -6 -2 8 8
9 11 21 7 27 -3 5 -2 10 3 10 6 0 8 9 5 19 -3 14 0 19 14 18 19 -2 43 -20 43
-33 0 -4 8 -13 18 -20 16 -13 16 -14 -2 -8 -17 6 -18 2 -12 -50 3 -32 8 -62
12 -68 4 -6 1 -13 -5 -17 -20 -13 -2 -38 23 -34 27 5 45 -14 22 -23 -9 -3 -12
-12 -8 -22 5 -15 4 -15 -11 -3 -15 11 -17 11 -17 -2 0 -8 6 -18 13 -20 6 -3 3
-6 -8 -7 -20 -1 -20 -1 -1 -15 11 -8 15 -15 8 -15 -6 0 -9 -7 -5 -16 3 -9 8
-11 12 -6 11 18 100 12 111 -6 5 -10 10 -12 10 -6 0 12 50 38 58 29 3 -3 0 -5
-6 -5 -7 0 -12 -5 -12 -10 0 -7 7 -7 21 1 13 7 40 9 65 5 26 -3 44 -2 44 4 0
6 9 10 20 10 14 0 18 -5 14 -17 -5 -14 -4 -15 4 -4 5 7 14 11 20 7 6 -3 13 3
17 13 3 12 12 18 20 15 10 -4 12 0 8 16 -4 13 0 26 8 31 10 6 10 9 2 9 -7 0
-13 7 -13 15 0 8 -4 15 -10 15 -5 0 -10 7 -10 16 0 8 4 12 10 9 11 -7 14 8 3
18 -3 4 -8 19 -9 34 -2 14 -9 30 -16 35 -27 17 -80 27 -103 18 -17 -6 -25 -5
-29 5 -4 11 7 13 52 9 31 -2 60 -8 66 -14 18 -18 26 -11 16 14 -7 18 -5 26 6
30 8 3 14 10 14 16 0 6 -4 8 -10 5 -5 -3 -10 -3 -11 2 0 4 -2 18 -3 31 -2 13
1 25 6 28 4 3 1 12 -8 21 -11 12 -12 18 -4 23 6 4 11 10 11 14 -1 3 2 6 6 6 4
0 8 -6 9 -14 4 -30 19 -45 34 -36 13 8 13 10 -2 10 -11 0 -15 6 -11 21 3 12
11 18 19 15 8 -3 14 -1 14 4 0 5 -8 11 -17 13 -10 2 -2 2 17 0 36 -5 80 -27
80 -41 0 -4 -12 -7 -27 -6 -43 2 -45 3 -37 15 4 8 9 7 16 -2 8 -11 9 -11 6 -1
-2 8 -7 13 -11 12 -49 -12 -48 -11 -24 -32 12 -11 15 -16 7 -12 -13 7 -13 5
-1 -9 10 -12 10 -21 3 -30 -7 -8 -7 -18 -2 -27 8 -12 10 -11 10 5 0 17 2 18
11 5 8 -12 9 -11 4 6 -4 16 0 23 15 27 12 3 18 1 14 -5 -4 -5 3 -8 16 -6 13 2
25 -3 28 -11 3 -9 0 -11 -8 -6 -9 5 -10 2 -6 -11 7 -23 -8 -49 -22 -40 -5 3
-12 0 -15 -8 -7 -16 34 -9 45 8 7 10 12 -29 9 -65 -1 -11 7 -16 29 -17 16 0
39 -4 50 -7 13 -4 20 -2 20 7 1 8 6 6 15 -6 14 -19 15 -19 15 -2 0 15 3 16 14
7 8 -6 18 -11 22 -10 5 1 18 1 29 0 17 -1 18 -3 5 -11 -12 -8 -12 -10 5 -11
37 -2 -49 -20 -93 -19 -27 0 -41 -4 -37 -10 3 -5 -3 -10 -14 -10 -12 0 -21 -4
-21 -10 0 -5 11 -10 24 -10 13 0 27 -6 30 -12 5 -10 7 -10 12 0 14 29 36 43
50 31 10 -8 14 -8 14 -1 0 7 14 15 32 20 25 6 32 13 32 33 0 13 -5 24 -11 24
-6 0 -15 3 -19 8 -4 4 -18 7 -31 7 -13 0 -23 5 -23 11 0 7 15 10 40 7 42 -4
48 0 28 20 -9 9 -6 9 14 0 18 -9 25 -19 23 -35 -1 -12 2 -20 6 -17 5 3 9 14 9
26 0 14 5 18 16 14 27 -10 36 5 14 24 l-21 18 20 7 c23 7 28 21 9 27 -8 3 -8
9 0 24 6 10 12 15 12 9 0 -14 108 -9 125 5 18 15 20 -1 3 -18 -7 -7 -8 -12 -2
-12 6 0 15 5 21 11 8 8 13 8 17 0 4 -6 1 -11 -6 -11 -8 -1 -7 -4 4 -10 10 -6
14 -18 11 -30 -5 -17 0 -20 26 -20 17 0 31 -4 31 -10 0 -5 -5 -10 -12 -10 -30
0 7 -14 42 -16 l40 -2 0 737 0 737 -52 -7 c-29 -4 -96 -7 -148 -7 -52 1 -77 3
-55 5 22 3 44 11 48 19 4 8 24 14 45 15 20 1 48 5 62 10 16 6 -5 7 -62 4 -53
-3 -89 -1 -93 5 -4 6 13 10 44 10 28 0 51 4 51 9 0 5 8 12 18 14 9 3 1 6 -18
7 -19 1 -46 6 -60 10 -18 6 -7 8 43 9 37 1 67 5 67 11 0 6 -5 10 -11 10 -6 0
-17 6 -24 14 -11 10 -11 16 -2 26 9 10 8 11 -8 7 -23 -7 -65 -10 -115 -8 -29
1 -36 5 -36 21 0 11 6 20 13 20 9 0 10 7 3 26 -6 14 -8 29 -5 34 3 5 -5 11
-17 13 -17 3 -13 5 12 7 l35 2 -40 13 c-32 11 -35 14 -15 14 20 1 22 3 10 11
-13 9 -13 10 0 11 8 1 26 0 39 -1 14 -1 21 2 17 9 -4 6 -22 11 -39 11 -30 1
-31 1 -13 15 20 15 20 15 0 16 -19 0 -19 1 1 8 15 6 10 10 -25 16 l-45 9 42 4
42 3 -14 40 c-17 47 -9 49 30 9 17 -18 39 -30 54 -30 l25 0 -22 16 c-12 8 -22
22 -22 31 0 14 3 14 25 -1 13 -9 35 -16 49 -16 28 0 43 -15 24 -23 -10 -4 -10
-6 0 -6 6 -1 12 -7 12 -15 0 -8 9 -18 20 -21 22 -7 27 -25 8 -25 -7 -1 -3 -6
10 -13 12 -7 19 -16 15 -20 -4 -4 2 -10 13 -13 15 -4 20 -14 21 -40 1 -19 -3
-36 -8 -39 -10 -7 0 -37 15 -47 7 -5 7 -8 -1 -8 -7 0 -13 -9 -13 -20 0 -11 6
-21 13 -22 6 0 -8 -4 -33 -8 l-45 -7 32 -8 c33 -7 67 -35 44 -35 -6 0 -11 -4
-11 -10 0 -5 7 -10 16 -10 8 0 12 -4 9 -10 -3 -5 0 -10 7 -10 7 -1 2 -7 -12
-15 -24 -14 -24 -14 -3 -15 12 0 24 -6 26 -12 3 -7 6 53 6 134 1 94 -3 156
-11 173 -9 21 -9 28 1 34 8 6 12 38 10 109 -1 94 -3 102 -21 102 -13 0 -17 4
-11 13 14 23 11 37 -7 37 -17 0 -34 -16 -35 -32 0 -20 -15 -17 -15 4 0 14 -11
35 -26 49 -25 23 -26 23 -15 2 6 -12 11 -29 11 -38 0 -13 -4 -14 -22 -4 -23
11 -23 11 1 -15 14 -14 21 -29 17 -33 -4 -4 -29 16 -55 45 -26 28 -53 52 -60
52 -7 0 -9 5 -5 11 5 8 -15 10 -69 8 -41 -3 -73 -1 -71 3 3 5 24 8 47 8 59 0
72 11 48 37 -11 12 -26 23 -33 26 -10 5 -9 8 4 17 9 6 27 24 39 41 l22 31 -21
-11 c-18 -10 -22 -9 -22 3 0 8 -5 16 -11 18 -12 4 -21 128 -8 128 5 0 9 5 9
11 0 6 -7 9 -15 6 -8 -4 -17 -2 -20 3 -4 6 -1 10 5 10 6 0 8 5 5 10 -3 6 -15
10 -26 10 -16 0 -20 6 -17 28 2 21 9 28 31 30 23 3 27 0 27 -21 0 -17 7 -26
21 -30 12 -3 18 -10 14 -17 -4 -7 1 -14 13 -17 14 -3 18 -11 14 -25 -4 -16 -1
-19 14 -16 16 3 19 12 18 67 -2 102 -54 147 -158 135 -57 -6 -73 -13 -117 -53
-31 -29 -32 -30 -26 -103 8 -91 21 -135 48 -164 19 -20 20 -26 8 -58 -7 -20
-19 -36 -25 -36 -7 0 -16 -4 -19 -10 -4 -6 1 -7 12 -3 12 4 15 3 8 -4 -5 -6
-29 -15 -53 -21 -42 -10 -43 -10 -26 9 16 18 16 19 -7 27 -13 5 -30 7 -37 4
-7 -2 -21 3 -32 13 -23 21 -61 14 -91 -16 -32 -32 -42 -11 -12 27 15 20 22 39
17 42 -5 4 -10 16 -12 27 -2 11 -6 27 -9 35 -12 30 -11 38 9 43 11 3 21 0 25
-9 11 -29 18 -12 15 36 -4 44 -8 53 -42 80 -56 44 -113 38 -164 -17 -23 -24
-26 -36 -25 -83 2 -54 15 -100 29 -100 9 0 30 -46 30 -65 0 -8 -7 -15 -15 -15
-8 0 -24 -9 -36 -21 -26 -26 -91 -49 -119 -42 -18 5 -20 10 -14 37 3 17 11 34
16 37 10 6 2 86 -13 125 -19 52 -109 78 -174 50 -28 -12 -31 -11 -50 18 -18
27 -28 31 -71 34 -39 2 -56 -2 -77 -18 -15 -12 -27 -28 -27 -36 0 -8 -5 -23
-12 -34 -10 -15 -9 -22 3 -37 19 -22 39 -69 39 -89 0 -8 9 -25 20 -37 l20 -21
-37 -23 c-21 -13 -47 -23 -58 -23 -25 1 -106 23 -122 33 -16 10 -17 51 -3 78
6 11 8 25 3 32 -4 6 -6 26 -4 44 1 17 -3 41 -9 53 -14 26 -65 49 -100 45 -14
-1 -31 -3 -37 -4 -16 -1 -43 -53 -43 -81 0 -12 -7 -20 -16 -20 -9 0 -34 -5
-56 -12 -52 -15 -72 -52 -59 -107 5 -22 6 -42 3 -45 -2 -3 0 -12 7 -20 7 -8
16 -28 21 -44 7 -26 5 -33 -14 -45 -20 -13 -25 -13 -47 3 -21 17 -24 27 -24
83 0 37 4 63 9 59 5 -3 6 2 3 12 -4 10 -7 27 -7 38 0 11 -14 33 -30 50 -28 28
-36 30 -78 25 -36 -4 -53 -12 -74 -36 -15 -17 -28 -39 -28 -48 0 -29 49 -148
70 -171 25 -26 25 -34 0 -57 -18 -16 -20 -16 -35 -1 -9 9 -28 19 -42 22 -21 6
-24 10 -18 33 4 14 9 54 12 87 5 61 4 61 -33 93 -21 17 -44 31 -51 31 -7 0
-13 6 -14 13 0 6 -2 21 -3 32 -2 11 -8 56 -15 100 -23 163 -41 366 -51 590
-15 319 -17 335 -40 335 -17 0 -18 -6 -15 -47 3 -27 12 -181 21 -343 8 -162
21 -386 29 -498 14 -194 13 -205 -4 -238 -11 -19 -22 -36 -25 -37 -3 -1 -14
14 -24 33 -9 19 -32 42 -51 52 -18 9 -40 26 -48 37 -21 31 -71 54 -100 46 -20
-5 -34 2 -69 35 -24 22 -52 40 -61 40 -10 0 -33 -18 -50 -40 -38 -45 -45 -104
-16 -126 36 -25 4 -25 -36 1 -50 34 -88 26 -111 -24 -11 -26 -19 -32 -37 -28
-15 3 -23 -1 -23 -9 0 -8 -4 -14 -10 -14 -5 0 -9 6 -7 13 1 8 -8 11 -28 9 -34
-4 -55 -18 -55 -38 0 -10 -15 -14 -56 -14 -36 0 -53 4 -49 11 12 18 -14 63
-48 86 -60 40 -129 11 -149 -62 -10 -37 -16 -45 -36 -45 -21 0 -23 4 -21 44 4
72 -47 128 -116 128 -70 0 -122 -62 -110 -131 l6 -38 -77 -6 c-42 -4 -94 -7
-115 -7 -34 0 -41 -4 -54 -32 -10 -22 -14 -25 -11 -10 2 12 0 22 -5 22 -16 0
-9 19 9 24 16 5 18 13 12 50 -10 70 -33 96 -81 96 -57 0 -100 -43 -93 -91 3
-19 1 -39 -3 -45 -9 -13 -223 -24 -223 -11 0 4 9 20 20 35 11 15 22 52 26 84
6 54 5 58 -25 89 -28 28 -37 31 -75 27 -25 -3 -54 -15 -69 -28 -25 -22 -27
-28 -22 -79 2 -31 8 -75 11 -99 6 -37 4 -42 -10 -36 -11 4 -16 18 -16 43 0 74
-82 113 -145 70 -32 -22 -35 -28 -35 -71 l0 -48 -61 0 c-67 0 -95 17 -86 51 6
24 -9 70 -26 81 -7 4 -33 8 -59 8 -67 0 -91 -25 -86 -91 3 -53 -2 -59 -53 -59
-22 0 -29 5 -29 19 0 11 -6 21 -12 24 -10 4 -10 7 -1 17 10 11 14 9 22 -11 8
-21 10 -17 10 24 1 61 -35 113 -84 123 -70 13 -111 -43 -101 -138 l6 -58 -29
0 c-28 0 -29 1 -35 69 -4 38 -12 74 -19 79 -26 22 -68 25 -108 7 -32 -15 -41
-25 -50 -59 -6 -22 -12 -54 -12 -71 l-2 -30 -94 3 c-52 2 -98 5 -102 8 -4 2 1
24 11 47 15 33 17 52 11 78 -5 19 -12 46 -15 61 -7 29 -49 58 -86 58 -33 0
-79 -28 -85 -53 -3 -12 -7 -35 -8 -52 -1 -16 -6 -33 -10 -36 -5 -4 1 -25 13
-49 12 -23 20 -43 18 -45 -21 -17 -61 -25 -128 -25 -80 0 -81 0 -75 23 4 12
16 36 26 53 22 37 25 126 6 164 -7 14 -25 31 -40 38 -24 12 -26 18 -22 50 2
20 7 213 10 427 3 215 8 411 12 438 l6 47 -452 0 -451 0 0 -77z m442 -497 c-2
-11 4 -16 19 -16 15 0 19 4 15 16 -4 12 0 15 17 12 17 -2 21 -8 19 -27 -4 -25
-2 -24 44 18 13 12 14 10 9 -11 -5 -18 -2 -27 10 -32 14 -5 16 -1 10 27 -6 30
-5 31 9 13 14 -17 16 -17 22 -3 9 26 26 8 19 -20 -3 -15 -2 -22 4 -18 6 3 13
-7 17 -22 3 -15 8 -34 10 -42 3 -8 -1 -18 -8 -23 -10 -6 -9 -11 5 -19 13 -7
15 -14 8 -23 -15 -18 -8 -99 9 -113 13 -11 13 -12 -2 -13 -20 0 -23 -13 -8
-41 9 -15 7 -19 -5 -19 -14 0 -15 -2 -1 -21 11 -16 12 -28 4 -50 -5 -16 -15
-27 -21 -24 -7 3 -2 -2 11 -11 12 -9 22 -21 22 -26 0 -6 -6 -5 -15 2 -8 6 -19
9 -25 5 -6 -4 -10 -3 -9 2 5 30 -2 35 -41 30 -22 -3 -55 -1 -75 3 -19 4 -35 6
-35 5 0 -2 -3 -10 -6 -18 -4 -12 0 -14 18 -11 15 3 18 2 8 -3 -8 -5 -15 -12
-16 -18 -3 -46 -18 -115 -26 -115 -5 0 -7 8 -4 18 20 67 23 101 9 106 -8 4
-13 13 -9 21 3 8 0 17 -6 21 -7 5 -8 2 -2 -7 4 -8 -7 -2 -25 14 -30 25 -39 27
-92 23 -32 -2 -56 0 -54 5 3 4 -3 13 -13 18 -14 7 -25 6 -43 -6 -13 -9 -21
-13 -17 -8 4 4 3 14 -2 20 -7 9 -6 14 4 18 8 3 12 14 10 24 -6 23 20 61 30 45
4 -7 1 -12 -6 -12 -7 0 -2 -7 10 -16 12 -8 20 -20 17 -25 -4 -5 -2 -17 4 -26
7 -13 25 -18 70 -20 36 -2 61 1 61 7 0 11 -25 14 -76 11 -29 -2 -31 0 -27 23
4 18 0 28 -12 32 -13 5 -14 9 -3 15 10 7 10 9 1 9 -7 0 -13 5 -13 10 0 6 11
10 25 10 14 0 25 5 25 10 0 19 -29 22 -52 6 -31 -22 -39 -20 -32 9 6 23 3 25
-25 25 -21 0 -31 -5 -31 -15 0 -8 -7 -15 -15 -15 -8 0 -15 4 -15 9 0 5 -10 12
-22 14 -17 3 -15 5 8 6 31 1 60 22 47 34 -3 4 6 7 20 7 15 0 27 -5 27 -11 0
-16 28 -40 34 -30 4 5 1 11 -6 13 -20 7 3 30 24 25 23 -6 48 1 48 14 0 5 -7 9
-15 9 -8 0 -15 5 -15 10 0 6 -10 11 -22 11 -17 1 -19 2 -5 6 11 3 17 14 17 34
0 22 5 29 20 29 11 0 18 6 16 13 -1 6 -1 9 1 5 6 -11 41 -10 47 1 3 5 -8 11
-24 15 -17 3 -30 10 -30 15 0 6 12 6 31 1 32 -9 59 -4 59 11 0 5 -9 9 -20 9
-30 0 -24 18 8 23 38 6 47 2 44 -17z m-368 -733 c-2 -16 -8 -85 -13 -155 -5
-70 -14 -136 -20 -145 -8 -15 -10 -11 -11 20 0 37 -1 38 -32 35 -26 -2 -33 -7
-31 -23 1 -11 3 -76 4 -144 1 -91 -1 -125 -11 -131 -7 -4 -10 -17 -7 -29 3
-15 0 -21 -10 -21 -12 0 -14 8 -9 43 11 71 9 247 -3 312 -21 113 -23 155 -9
155 25 0 42 -43 39 -97 l-2 -53 35 0 c30 0 36 3 36 22 0 12 -6 37 -12 56 -11
28 -10 38 4 63 10 16 15 35 12 43 -3 7 2 19 11 26 18 15 21 36 2 24 -7 -5 -4
-1 6 9 25 22 24 22 21 -10z m2922 -42 c-3 -4 5 -13 18 -19 18 -8 31 -31 51
-91 23 -70 26 -91 20 -154 -11 -119 -12 -237 -3 -237 5 0 6 -4 3 -10 -3 -5 -2
-18 3 -27 9 -16 4 -18 -52 -20 -50 -3 -64 -7 -76 -25 -36 -54 -68 -70 -77 -41
-5 13 26 45 37 38 13 -8 19 22 7 34 -15 15 -27 14 -23 -1 1 -7 1 -10 -1 -5 -3
4 -11 7 -19 7 -8 0 -14 10 -14 25 0 25 14 33 25 15 8 -13 26 -13 45 0 13 9 13
11 0 20 -8 5 -30 10 -47 10 -18 0 -33 5 -33 10 0 6 5 10 12 10 9 0 9 3 0 12
-18 18 5 38 44 38 31 0 34 -3 48 -47 l15 -48 0 45 c0 25 -5 52 -12 60 -19 24
-64 50 -87 50 -24 0 -26 13 -5 30 11 9 13 16 5 24 -5 5 -10 20 -10 32 0 30
-26 52 -34 27 -3 -10 -3 31 -1 90 2 60 5 110 7 112 2 3 20 0 39 -6 52 -16 85
0 94 47 5 32 8 35 16 21 6 -9 8 -21 5 -26z m269 -56 c16 -20 16 -19 9 5 -7 25
-7 25 15 6 11 -11 21 -15 21 -10 0 5 4 3 9 -5 9 -14 27 -21 60 -23 13 -1 13
-12 -5 -140 -5 -39 -4 -48 9 -48 8 0 20 14 26 31 14 40 14 72 1 64 -5 -3 -10
-2 -10 3 0 6 8 13 17 16 11 5 14 10 7 14 -6 4 -13 24 -16 44 -2 23 0 34 6 30
25 -15 57 -7 62 15 8 32 27 17 22 -18 -3 -17 1 -30 9 -33 16 -6 17 -52 2 -95
-11 -32 -24 -40 -32 -18 -3 7 -6 6 -6 -5 -1 -9 3 -19 8 -22 6 -4 5 -20 0 -42
-6 -19 -8 -41 -6 -47 2 -7 0 -20 -5 -31 -7 -12 -7 -16 0 -12 6 4 8 -2 5 -14
-3 -11 -9 -20 -14 -20 -5 0 -10 -15 -10 -32 -1 -18 -3 -25 -6 -15 -6 22 -23
12 -23 -12 0 -11 -9 -29 -20 -42 l-20 -24 7 48 c4 32 2 47 -6 47 -6 0 -11 -10
-11 -22 0 -13 -3 -33 -6 -44 -7 -26 19 -39 48 -23 16 9 24 7 36 -5 15 -15 11
-16 -50 -16 -83 0 -117 14 -125 52 -5 28 -23 39 -23 16 0 -7 -5 -5 -11 5 -5 9
-8 21 -5 26 3 4 -4 18 -15 30 -11 12 -22 32 -24 44 -3 12 -18 34 -36 48 -20
17 -29 34 -27 47 3 19 5 20 28 6 24 -14 24 -15 3 -11 -36 8 -27 -10 12 -23 19
-6 35 -15 35 -20 0 -5 15 -30 33 -55 17 -26 39 -58 48 -72 9 -13 27 -31 39
-40 21 -15 22 -15 15 8 -4 13 -15 42 -25 65 -10 22 -23 75 -29 117 -6 42 -20
100 -32 129 -11 29 -24 77 -27 107 -10 77 -28 76 -24 -1 l2 -63 -16 40 c-8 22
-16 45 -16 52 -1 8 -7 9 -18 3 -24 -13 -53 9 -40 30 5 8 10 10 10 3 0 -11 11
-11 40 0 38 14 46 13 62 -7 9 -11 24 -30 33 -41z m-1979 -8 c3 -3 1 -20 -5
-38 -5 -19 -10 -28 -10 -21 -1 6 -14 12 -30 12 -41 0 -79 -47 -87 -110 -4 -28
-12 -50 -18 -50 -6 0 -4 -5 4 -10 12 -8 11 -10 -7 -10 -21 0 -23 5 -24 48 -1
54 -8 132 -14 149 -8 24 169 52 191 30z m3818 -343 c9 -8 21 -24 26 -35 8 -15
7 -19 -5 -19 -8 0 -15 -4 -15 -9 0 -4 12 -8 28 -7 22 1 28 6 30 29 2 19 9 27
23 27 23 0 23 0 -1 -134 -19 -103 -19 -110 -2 -122 21 -17 -5 -17 377 1 415
19 378 20 371 -8 -3 -13 -1 -88 4 -167 7 -104 7 -146 -1 -151 -6 -3 -93 -10
-193 -13 -233 -9 -269 -14 -263 -35 43 -136 45 -147 31 -172 -8 -15 -14 -18
-14 -9 0 8 -7 1 -15 -15 -9 -17 -29 -36 -45 -42 -20 -8 -36 -24 -47 -50 -16
-35 -17 -36 -21 -13 -2 13 -11 30 -20 37 -20 15 -78 17 -87 3 -3 -5 -21 -10
-39 -10 -34 0 -96 45 -96 70 0 9 5 8 19 -4 15 -14 24 -15 39 -7 11 6 22 7 26
4 3 -3 6 -1 6 5 0 17 31 15 57 -3 18 -13 22 -12 37 4 16 17 15 20 -11 52 -24
30 -24 31 -3 14 22 -18 23 -19 17 -2 -4 11 -9 31 -12 45 -4 22 -2 21 13 -9 17
-35 18 -36 52 -23 24 8 29 13 15 14 -19 1 -19 2 -3 14 10 7 15 16 11 19 -3 4
3 7 15 7 34 0 26 18 -12 25 -27 6 -33 11 -29 26 4 13 0 19 -10 19 -27 0 -30
20 -5 40 13 12 16 18 7 14 -13 -4 -16 2 -16 28 0 44 -13 89 -24 82 -5 -3 -9 4
-9 15 0 21 -19 24 -33 6 -4 -5 -4 -33 -1 -61 4 -33 2 -54 -5 -58 -7 -5 -11 4
-11 23 0 17 -4 31 -9 31 -5 0 -14 14 -21 30 -17 41 -31 48 -20 10 5 -17 5 -30
0 -30 -5 0 -12 21 -16 48 -4 26 -11 57 -15 70 -5 12 -5 22 -1 22 4 0 21 -30
37 -67 16 -37 31 -61 33 -54 2 6 -8 38 -24 69 -20 41 -37 62 -61 73 -36 18
-48 11 -38 -21 7 -22 25 -27 25 -8 0 28 18 -10 22 -47 3 -22 8 -48 13 -58 6
-14 2 -20 -13 -24 -18 -4 -20 -9 -11 -24 6 -13 6 -19 -1 -19 -5 0 -10 5 -10
12 0 8 -3 9 -10 2 -12 -12 -16 -83 -6 -114 7 -21 6 -23 -5 -12 -10 9 -14 41
-15 100 -1 112 -1 112 -21 112 -13 0 -14 -3 -5 -12 7 -7 12 -28 11 -47 0 -29
-2 -32 -9 -16 -7 17 -9 17 -9 3 -1 -10 -5 -18 -9 -18 -20 0 -32 28 -32 77 0
48 4 58 38 96 21 23 43 55 50 71 l13 29 -38 -34 -38 -33 -3 32 c-2 17 2 40 7
51 9 16 8 22 -6 30 -10 5 -18 21 -18 36 -1 22 2 25 22 20 35 -8 28 9 -9 23
-27 10 -30 14 -18 22 13 9 13 12 -2 21 -10 5 -18 20 -18 32 0 22 1 22 20 -3
11 -14 20 -30 20 -37 0 -6 5 -15 10 -18 7 -4 9 2 4 19 -4 16 -2 26 4 26 6 0 9
11 6 25 -2 14 0 25 6 25 6 0 8 5 5 10 -3 6 -17 10 -31 10 -13 0 -24 4 -24 8 0
26 41 30 64 6z m-788 -52 c40 -59 44 -198 6 -199 -9 0 -19 3 -22 6 -3 3 -18
13 -35 21 -25 13 -30 22 -33 58 -3 41 10 57 22 27 7 -20 30 -19 50 1 25 24 10
34 -54 34 -53 0 -59 2 -62 23 -3 16 6 28 32 45 45 29 69 25 96 -16z m567 1 c3
-16 2 -32 -3 -37 -10 -10 4 -45 37 -95 15 -22 23 -48 22 -75 0 -23 -3 -35 -6
-28 -2 6 -22 12 -43 12 l-38 0 -7 63 c-4 34 -11 82 -16 106 -12 56 -4 81 26
81 17 0 24 -7 28 -27z m1361 -409 c7 -79 17 -138 34 -184 3 -8 7 -52 9 -97 l5
-83 -49 0 c-26 0 -65 -3 -86 -7 l-39 -6 3 104 c1 57 8 127 15 154 7 28 20 90
29 139 9 49 21 112 27 140 l11 51 17 -61 c10 -33 20 -100 24 -150z m-1414 116
c-13 -24 -6 -70 10 -70 6 0 11 -28 12 -62 1 -61 1 -61 7 -18 l6 45 7 -52 c10
-73 35 -116 123 -211 43 -46 75 -85 72 -88 -10 -11 -154 141 -177 186 -12 25
-29 53 -37 62 -8 9 -22 47 -30 85 -8 37 -20 74 -25 81 -15 18 -41 15 -34 -4 3
-8 2 -12 -4 -9 -5 3 -19 1 -30 -5 -17 -9 -20 -8 -20 10 0 11 -4 20 -10 20 -5
0 -10 7 -10 15 0 12 13 15 58 15 63 0 89 11 77 31 -6 11 -5 11 4 3 10 -9 10
-17 1 -34z m92 -109 c8 23 28 -1 29 -34 1 -19 3 -24 6 -12 2 11 6 29 8 41 8
37 33 24 40 -22 3 -23 13 -48 20 -54 8 -7 15 -24 15 -38 0 -20 -3 -23 -12 -14
-24 24 -28 11 -8 -28 25 -48 25 -57 3 -39 -19 15 -18 14 33 -59 9 -12 14 -25
12 -28 -9 -9 -69 80 -63 94 2 7 -5 34 -17 59 -18 39 -23 43 -29 27 -4 -10 -8
-13 -8 -5 -1 7 -12 22 -26 33 -24 19 -65 90 -65 112 0 5 13 -3 29 -18 19 -18
30 -23 33 -15z m-537 -52 c69 -13 165 -53 165 -69 0 -7 -7 -24 -16 -40 l-17
-28 -25 27 c-13 14 -20 19 -15 11 18 -28 22 -49 11 -56 -6 -4 -8 -3 -5 3 7 11
-39 63 -55 63 -5 0 -3 -10 4 -21 39 -64 40 -59 -10 -115 -34 -40 -49 -51 -58
-43 -11 9 -59 16 -142 20 -18 1 -21 5 -16 23 4 11 7 21 8 22 57 34 197 57 210
35 9 -15 26 -14 26 1 0 18 -71 87 -84 82 -7 -3 -34 15 -60 40 -62 56 -42 68
79 45z m430 -97 c16 -26 32 -49 35 -52 9 -8 32 -131 26 -137 -3 -3 -12 0 -21
7 -9 7 -15 8 -15 2 0 -6 5 -12 11 -14 12 -4 33 -54 53 -125 6 -23 15 -45 19
-49 10 -11 9 -26 -2 -20 -5 4 -19 2 -32 -2 -20 -8 -18 -10 20 -16 30 -5 41
-11 38 -20 -3 -7 1 -26 9 -41 10 -20 11 -31 4 -40 -8 -10 -4 -15 15 -22 l26
-8 -33 -12 c-28 -11 -30 -10 -15 1 16 13 16 14 -4 19 -11 3 -19 10 -16 14 3 5
-3 15 -15 22 -11 7 -17 8 -14 2 4 -6 1 -9 -7 -5 -9 3 -13 13 -10 25 4 14 1 18
-9 14 -11 -4 -17 2 -21 22 -3 15 -9 36 -12 46 -6 13 -2 17 19 17 38 0 32 16
-19 46 -25 14 -46 29 -47 32 0 4 -2 19 -3 35 -1 15 -11 43 -21 63 -15 28 -16
36 -6 43 11 6 6 14 -17 30 -17 12 -31 27 -31 34 0 8 3 8 12 -1 17 -17 38 -15
38 3 0 18 26 10 58 -18 27 -25 28 -13 2 31 -11 17 -27 32 -35 32 -9 0 -13 4
-10 10 3 5 -9 24 -27 41 l-33 31 39 -31 c45 -34 61 -33 28 2 -23 24 -28 37
-14 37 4 0 20 -21 37 -48z m910 -313 c8 -145 17 -279 20 -296 5 -27 3 -33 -12
-33 -42 1 -43 8 -58 285 l-14 269 22 21 c12 12 23 21 24 20 2 -1 9 -120 18
-266z"/>
<path d="M7195 3125 c-5 -1 -38 -11 -73 -21 -60 -17 -63 -19 -57 -43 8 -31 44
-73 56 -65 5 3 9 0 9 -6 0 -7 7 -10 15 -6 9 3 19 -3 25 -14 6 -11 16 -20 23
-20 7 0 6 4 -3 10 -8 5 -10 10 -3 10 15 0 32 51 26 82 -4 22 1 27 41 42 25 10
46 22 46 27 0 8 -81 12 -105 4z"/>
</g>
</svg>
